<svg xmlns="http://www.w3.org/2000/svg" width="36" height="36" fill="none" viewBox="0 0 36 36">
    <path stroke="#9F99A9" stroke-linecap="round" stroke-linejoin="round" stroke-width="2" d="M4.206 23.215s.213 2.608.263 3.43c.066 1.102.492 2.334 1.203 3.189 1.003 1.212 2.185 1.639 3.763 1.642 1.856.003 15.348.003 17.204 0 1.578-.003 2.76-.43 3.763-1.642.711-.855 1.137-2.087 1.205-3.19.048-.821.26-3.428.26-3.428"/>
    <path stroke="#323C45" stroke-linecap="round" stroke-linejoin="round" stroke-width="2" d="M12.744 7.994v-.556c0-1.83 1.482-3.312 3.312-3.312h3.873c1.828 0 3.312 1.482 3.312 3.312l.001.556M17.992 25.017v-1.94"/>
    <path fill-rule="evenodd" stroke="#323C45" stroke-linecap="round" stroke-linejoin="round" stroke-width="2" d="M4.125 12.584v5.2c2.877 1.898 6.324 3.227 10.107 3.753.453-1.651 1.942-2.862 3.753-2.862 1.782 0 3.301 1.21 3.724 2.877 3.798-.526 7.259-1.855 10.15-3.768v-5.2c0-2.541-2.044-4.587-4.585-4.587H8.725c-2.54 0-4.6 2.046-4.6 4.587z" clip-rule="evenodd"/>
</svg>
