<svg xmlns="http://www.w3.org/2000/svg" viewBox="0 0 139.96 60"><g id="Layer_2" data-name="Layer 2"><path d="M120.28,10H17.67a13.65,13.65,0,0,0-2,.18,6.44,6.44,0,0,0-1.9.63A6.36,6.36,0,0,0,11,13.62a6.44,6.44,0,0,0-.63,1.9,13.39,13.39,0,0,0-.18,2c0,.31,0,.62,0,.92V41.56c0,.31,0,.61,0,.92a13.39,13.39,0,0,0,.18,2A6.48,6.48,0,0,0,12.14,48a6.24,6.24,0,0,0,1.62,1.18,6.74,6.74,0,0,0,1.9.63,13.65,13.65,0,0,0,2,.18H122.29a13.39,13.39,0,0,0,2-.18,6.91,6.91,0,0,0,1.91-.63A6.55,6.55,0,0,0,129,46.39a6.48,6.48,0,0,0,.62-1.91,13.41,13.41,0,0,0,.19-2v-.92c0-.36,0-.73,0-1.1V19.54c0-.37,0-.73,0-1.1v-.92a13.41,13.41,0,0,0-.19-2,6.43,6.43,0,0,0-3.41-4.7,6.91,6.91,0,0,0-1.91-.63,13.39,13.39,0,0,0-2-.18h-2Z" fill="#a6a6a6"/><path d="M18.59,49.12h-.9A11.7,11.7,0,0,1,15.82,49a5.69,5.69,0,0,1-1.66-.55,5.38,5.38,0,0,1-1.4-1,5.65,5.65,0,0,1-1-1.4,6,6,0,0,1-.54-1.66A13,13,0,0,1,11,42.46c0-.21,0-.92,0-.92V18.44s0-.69,0-.89a13,13,0,0,1,.17-1.87A6,6,0,0,1,11.74,14a5.58,5.58,0,0,1,2.42-2.42,5.73,5.73,0,0,1,1.65-.55,11.83,11.83,0,0,1,1.88-.16l.9,0H121.36l.91,0a12.73,12.73,0,0,1,1.86.16,5.75,5.75,0,0,1,1.67.55,5.5,5.5,0,0,1,3,4.07,13.15,13.15,0,0,1,.18,1.88v.89c0,.38,0,.74,0,1.1V40.46c0,.37,0,.72,0,1.08v.93a12.74,12.74,0,0,1-.18,1.85,5.45,5.45,0,0,1-.54,1.67,5.33,5.33,0,0,1-1,1.39,5.41,5.41,0,0,1-1.4,1,5.85,5.85,0,0,1-1.67.55,11.7,11.7,0,0,1-1.87.16H18.59Z"/><g id="_Group_" data-name=" Group "><g id="_Group_2" data-name=" Group 2"><g id="_Group_3" data-name=" Group 3"><path id="_Path_" data-name=" Path " d="M34.92,30.3a4.94,4.94,0,0,1,2.35-4.15,5,5,0,0,0-4-2.16c-1.68-.18-3.31,1-4.16,1s-2.19-1-3.61-1A5.28,5.28,0,0,0,21,26.77c-1.94,3.34-.5,8.26,1.36,11,.92,1.33,2,2.81,3.43,2.75s1.9-.88,3.57-.88,2.15.88,3.6.85,2.42-1.33,3.32-2.67a11.09,11.09,0,0,0,1.51-3.09A4.79,4.79,0,0,1,34.92,30.3Z" fill="#fff"/><path id="_Path_2" data-name=" Path 2" d="M32.18,22.21a4.82,4.82,0,0,0,1.12-3.49,4.94,4.94,0,0,0-3.21,1.66A4.63,4.63,0,0,0,29,23.74,4.09,4.09,0,0,0,32.18,22.21Z" fill="#fff"/></g></g><path d="M52.45,37.14H47.72L46.58,40.5h-2l4.49-12.42h2.08L55.62,40.5h-2Zm-4.24-1.55H52l-1.85-5.45h0Z" fill="#fff"/><path d="M65.31,36c0,2.81-1.51,4.62-3.78,4.62A3.07,3.07,0,0,1,58.68,39h0v4.48H56.78v-12h1.8V33h0a3.19,3.19,0,0,1,2.88-1.6C63.79,31.35,65.31,33.16,65.31,36ZM63.4,36c0-1.83-.95-3-2.4-3s-2.37,1.23-2.37,3S59.58,39,61,39,63.4,37.82,63.4,36Z" fill="#fff"/><path d="M75.27,36c0,2.81-1.5,4.62-3.78,4.62A3.08,3.08,0,0,1,68.64,39h0v4.48H66.74v-12h1.8V33h0a3.19,3.19,0,0,1,2.88-1.6C73.76,31.35,75.27,33.16,75.27,36Zm-1.91,0c0-1.83-1-3-2.39-3s-2.38,1.23-2.38,3S69.55,39,71,39s2.39-1.2,2.39-3.05Z" fill="#fff"/><path d="M81.86,37c.13,1.23,1.33,2,3,2s2.69-.81,2.69-1.92-.68-1.54-2.29-1.94l-1.61-.39c-2.28-.55-3.34-1.61-3.34-3.34,0-2.15,1.87-3.62,4.52-3.62s4.42,1.47,4.48,3.62H87.41c-.11-1.24-1.14-2-2.64-2s-2.52.75-2.52,1.86c0,.87.66,1.39,2.26,1.79l1.37.33c2.54.6,3.6,1.63,3.6,3.44,0,2.33-1.85,3.78-4.79,3.78-2.76,0-4.62-1.42-4.74-3.66Z" fill="#fff"/><path d="M93.49,29.3v2.14h1.72v1.47H93.49v5c0,.77.35,1.13,1.1,1.13.21,0,.41,0,.62,0v1.46a5.16,5.16,0,0,1-1,.09c-1.83,0-2.54-.69-2.54-2.45V32.91H90.31V31.44h1.32V29.3Z" fill="#fff"/><path d="M96.21,36c0-2.85,1.68-4.64,4.3-4.64s4.29,1.79,4.29,4.64-1.66,4.64-4.29,4.64S96.21,38.83,96.21,36Zm6.7,0c0-1.95-.9-3.11-2.4-3.11S98.1,34,98.1,36s.9,3.11,2.41,3.11,2.4-1.15,2.4-3.11Z" fill="#fff"/><path d="M106.33,31.44h1.77V33h.05a2.15,2.15,0,0,1,2.18-1.63,2.7,2.7,0,0,1,.63.07v1.74a2.35,2.35,0,0,0-.83-.12,1.87,1.87,0,0,0-1.95,1.8c0,.09,0,.19,0,.29V40.5h-1.86Z" fill="#fff"/><path d="M119.53,37.84c-.25,1.64-1.85,2.77-3.9,2.77-2.63,0-4.27-1.77-4.27-4.6s1.65-4.68,4.19-4.68,4.08,1.72,4.08,4.47v.63h-6.39v.12a2.35,2.35,0,0,0,2.14,2.55h.3a2.05,2.05,0,0,0,2.09-1.27Zm-6.28-2.71h4.52a2.17,2.17,0,0,0-2-2.29h-.17a2.29,2.29,0,0,0-2.3,2.28Z" fill="#fff"/></g><g id="_Group_4" data-name=" Group 4"><path d="M48,18.73a2.63,2.63,0,0,1,2.82,2.44,2.35,2.35,0,0,1,0,.53c0,1.9-1,3-2.81,3H45.82v-6Zm-1.23,5.12h1.13a1.86,1.86,0,0,0,2-1.76,1.61,1.61,0,0,0,0-.38,1.88,1.88,0,0,0-1.61-2.12,2.17,2.17,0,0,0-.36,0H46.74Z" fill="#fff"/><path d="M51.83,22.44a2.13,2.13,0,0,1,4.24-.4,1.34,1.34,0,0,1,0,.4,2.13,2.13,0,1,1-4.24.42A1.48,1.48,0,0,1,51.83,22.44Zm3.33,0c0-1-.44-1.54-1.21-1.54s-1.2.57-1.2,1.54S53.18,24,54,24s1.21-.57,1.21-1.55Z" fill="#fff"/><path d="M61.72,24.7H60.8l-.93-3.32H59.8l-.93,3.32H58l-1.24-4.51h.9l.8,3.44h.07l.93-3.44h.85l.92,3.44h.07l.81-3.44H63Z" fill="#fff"/><path d="M64,20.19h.86v.72h.06a1.34,1.34,0,0,1,1.35-.8,1.47,1.47,0,0,1,1.57,1.35,1.67,1.67,0,0,1,0,.32V24.7h-.88V22c0-.73-.32-1.09-1-1.09a1,1,0,0,0-1.08,1,.76.76,0,0,0,0,.15V24.7H64Z" fill="#fff"/><path d="M69.24,18.44h.89V24.7h-.89Z" fill="#fff"/><path d="M71.36,22.44a2.13,2.13,0,0,1,4.25-.4,2.67,2.67,0,0,1,0,.4,2.14,2.14,0,0,1-4.25.42A2.94,2.94,0,0,1,71.36,22.44Zm3.34,0c0-1-.44-1.54-1.21-1.54s-1.21.57-1.21,1.54S72.72,24,73.49,24,74.7,23.42,74.7,22.44Z" fill="#fff"/><path d="M76.55,23.42c0-.81.6-1.27,1.67-1.34L79.44,22v-.39c0-.47-.31-.74-.92-.74s-.84.18-.94.5h-.86c.09-.78.82-1.27,1.84-1.27s1.77.56,1.77,1.51V24.7h-.86v-.64H79.4a1.49,1.49,0,0,1-1.35.71,1.36,1.36,0,0,1-1.5-1.21ZM79.44,23v-.38l-1.1.07c-.62,0-.9.26-.9.65s.35.64.84.64a1.06,1.06,0,0,0,1.16-.95Z" fill="#fff"/><path d="M81.49,22.44c0-1.42.74-2.32,1.87-2.32a1.46,1.46,0,0,1,1.38.79h.07V18.44h.89V24.7h-.85V24h-.07a1.58,1.58,0,0,1-1.42.78C82.22,24.77,81.49,23.87,81.49,22.44Zm.92,0c0,1,.45,1.53,1.21,1.53s1.21-.58,1.21-1.52-.47-1.53-1.21-1.53-1.21.58-1.21,1.52Z" fill="#fff"/><path d="M89.38,22.44a2.13,2.13,0,1,1,4.24-.4,1.34,1.34,0,0,1,0,.4,2.13,2.13,0,1,1-4.24.42A1.48,1.48,0,0,1,89.38,22.44Zm3.33,0c0-1-.44-1.54-1.21-1.54s-1.21.57-1.21,1.54S90.73,24,91.5,24,92.71,23.42,92.71,22.44Z" fill="#fff"/><path d="M94.82,20.19h.85v.72h.07a1.33,1.33,0,0,1,1.34-.8,1.46,1.46,0,0,1,1.57,1.35,1.13,1.13,0,0,1,0,.32V24.7h-.89V22c0-.73-.31-1.09-1-1.09a1,1,0,0,0-1.08,1V24.7h-.88Z" fill="#fff"/><path d="M103.66,19.07v1.15h1V21h-1v2.32c0,.47.2.68.64.68l.34,0v.74a2.63,2.63,0,0,1-.49,0c-1,0-1.38-.35-1.38-1.21V21h-.71v-.74h.71V19.07Z" fill="#fff"/><path d="M105.85,18.44h.88v2.48h.07a1.39,1.39,0,0,1,1.38-.81,1.49,1.49,0,0,1,1.56,1.4,2.53,2.53,0,0,1,0,.28V24.7h-.89V22c0-.72-.34-1.08-1-1.08a1,1,0,0,0-1.13,1,.54.54,0,0,0,0,.18V24.7h-.89Z" fill="#fff"/><path d="M114.91,23.48a1.82,1.82,0,0,1-2,1.3,2,2,0,0,1-2.1-2,1.83,1.83,0,0,1,0-.33,2.06,2.06,0,0,1,1.78-2.33,1.42,1.42,0,0,1,.29,0c1.26,0,2,.85,2,2.27v.31h-3.18v0A1.19,1.19,0,0,0,112.87,24H113a1.08,1.08,0,0,0,1.07-.55ZM111.78,22h2.28a1.09,1.09,0,0,0-1-1.16H113A1.17,1.17,0,0,0,111.78,22v0Z" fill="#fff"/></g></g></svg>