<?xml version="1.0" encoding="UTF-8"?>
<svg width="16px" height="16px" viewBox="0 0 16 16" version="1.1" xmlns="http://www.w3.org/2000/svg" xmlns:xlink="http://www.w3.org/1999/xlink">
    <title>breakout_bg_ #170439</title>
    <g id="Branding-Finals" stroke="none" stroke-width="1" fill="none" fill-rule="evenodd">
        <g id="Brand-Logo_breakout_icons_final" transform="translate(-670.000000, -669.000000)">
            <g id="breakout_bg_-#170439" transform="translate(670.000000, 669.000000)">
                <rect id="BG" fill="#170439" x="0" y="0" width="16" height="16" rx="2.8125"></rect>
                <g id="b." transform="translate(4.093750, 4.125000)" fill-rule="nonzero">
                    <path d="M3.1323243,7.68549675 C3.85710037,7.68549675 4.47603043,7.41101472 4.98911448,6.86205067 C5.50219853,6.31308661 5.75874056,5.64033655 5.75874056,4.84380047 C5.75874056,4.04726439 5.50219853,3.37451433 4.98911448,2.82555027 C4.47603043,2.27658622 3.85710037,2.00210419 3.1323243,2.00210419 C2.37884423,2.00210419 1.79758817,2.26402822 1.38855613,2.78787627 L1.38855613,2.78787627 L1.38855613,0 L-4.70663524e-14,0 L-4.70663524e-14,7.53480073 L1.38855613,7.53480073 L1.38855613,6.89972467 C1.79758817,7.42357272 2.37884423,7.68549675 3.1323243,7.68549675 Z M2.87398828,6.36152462 C2.44342824,6.36152462 2.0882162,6.2215926 1.80835218,5.94172858 C1.52848815,5.65468855 1.38855613,5.28871251 1.38855613,4.84380047 C1.38855613,4.39888843 1.52848815,4.03470639 1.80835218,3.75125436 C2.0882162,3.46780234 2.44342824,3.32607632 2.87398828,3.32607632 C3.30454832,3.32607632 3.66155436,3.46780234 3.94500638,3.75125436 C4.22845841,4.03470639 4.37018442,4.39888843 4.37018442,4.84380047 C4.37018442,5.28871251 4.22845841,5.65289455 3.94500638,5.93634658 C3.66155436,6.2197986 3.30454832,6.36152462 2.87398828,6.36152462 Z" id="b" fill="#FFFFFF"></path>
                    <path d="M7.54556473,7.67473275 C7.79672476,7.67473275 8.01200478,7.58503274 8.1914048,7.40563272 C8.37080481,7.2262327 8.46050482,7.01095268 8.46050482,6.75979266 C8.46050482,6.50863263 8.37080481,6.29335261 8.1914048,6.11395259 C8.01200478,5.93455258 7.79672476,5.84485257 7.54556473,5.84485257 C7.29440471,5.84485257 7.07912469,5.93455258 6.89972467,6.11395259 C6.72032465,6.29335261 6.63062464,6.50863263 6.63062464,6.75979266 C6.63062464,7.01095268 6.72032465,7.2262327 6.89972467,7.40563272 C7.07912469,7.58503274 7.29440471,7.67473275 7.54556473,7.67473275 Z" id="." fill="#14CC60"></path>
                </g>
            </g>
        </g>
    </g>
</svg>