<?xml version="1.0" encoding="UTF-8"?>
<svg width="512px" height="512px" viewBox="0 0 512 512" version="1.1" xmlns="http://www.w3.org/2000/svg" xmlns:xlink="http://www.w3.org/1999/xlink">
    <title>marketfeed_bg_ #170439</title>
    <g id="Branding-Finals" stroke="none" stroke-width="1" fill="none" fill-rule="evenodd">
        <g id="Brand-Logo_marketfeed_icons" transform="translate(-656.000000, -80.000000)">
            <g id="marketfeed_bg_-#170439" transform="translate(656.000000, 80.000000)">
                <rect id="BG" fill="#170439" x="0" y="0" width="512" height="512" rx="90"></rect>
                <g id="m." transform="translate(111.000000, 170.000000)" fill-rule="nonzero">
                    <path d="M43.1659821,171.994688 L43.1659821,77.9664638 C43.1659821,65.6970632 46.0102523,56.3277028 51.6987925,49.8583824 C57.3873328,43.3890621 65.0278232,40.154402 74.6202637,40.154402 C83.5434641,40.154402 90.4589444,42.9429021 95.3667047,48.5199024 C100.274465,54.0969027 102.728345,61.904703 102.728345,71.9433035 L102.728345,71.9433035 L102.728345,171.994688 L145.894327,171.994688 L145.894327,77.9664638 C145.894327,65.6970632 148.627057,56.3277028 154.092518,49.8583824 C159.557978,43.3890621 167.198468,40.154402 177.013989,40.154402 C185.937189,40.154402 192.852669,42.9429021 197.76043,48.5199024 C202.66819,54.0969027 205.12207,61.904703 205.12207,71.9433035 L205.12207,71.9433035 L205.12207,171.994688 L248.288052,171.994688 L248.288052,68.9317234 C248.288052,47.9622024 242.543742,31.2312015 231.055121,18.7387209 C219.566501,6.24624031 204.22975,-4.06430439e-14 185.044869,-4.06430439e-14 C162.959948,-4.06430439e-14 146.340487,8.03088039 135.186487,24.0926412 C125.370966,8.03088039 110.201525,-4.06430439e-14 89.6781644,-4.06430439e-14 C68.7086434,-4.06430439e-14 53.2045826,7.47318037 43.1659821,22.4195411 L43.1659821,22.4195411 L43.1659821,4.68468023 L1.62572176e-13,4.68468023 L1.62572176e-13,171.994688 L43.1659821,171.994688 Z" id="m" fill="#FFFFFF"></path>
                    <path d="M299.768051,171.994688 C307.619032,171.994688 314.348443,169.190767 319.956286,163.582924 C325.564129,157.975081 328.368051,151.245669 328.368051,143.394689 C328.368051,135.543709 325.564129,128.814297 319.956286,123.206454 C314.348443,117.598611 307.619032,114.794689 299.768051,114.794689 C291.917071,114.794689 285.187659,117.598611 279.579816,123.206454 C273.971973,128.814297 271.168052,135.543709 271.168052,143.394689 C271.168052,151.245669 273.971973,157.975081 279.579816,163.582924 C285.187659,169.190767 291.917071,171.994688 299.768051,171.994688 Z" id="." fill="#FFC400"></path>
                </g>
            </g>
        </g>
    </g>
</svg>