<svg width="135" height="19" viewBox="0 0 135 19" fill="none" xmlns="http://www.w3.org/2000/svg">
<path d="M4.03269 17.9307V11.1964C4.03269 10.3177 4.23639 9.64665 4.6438 9.18332C5.05121 8.71999 5.59842 8.48832 6.28543 8.48832C6.9245 8.48832 7.41978 8.68803 7.77128 9.08745C8.12277 9.48688 8.29851 10.0461 8.29851 10.765V17.9307H11.39V11.1964C11.39 10.3177 11.5858 9.64665 11.9772 9.18332C12.3686 8.71999 12.9158 8.48832 13.6188 8.48832C14.2579 8.48832 14.7532 8.68803 15.1047 9.08745C15.4562 9.48688 15.6319 10.0461 15.6319 10.765V17.9307H18.7234V10.5493C18.7234 9.04751 18.312 7.84925 17.4892 6.95454C16.6664 6.05984 15.568 5.61249 14.194 5.61249C12.6123 5.61249 11.422 6.18765 10.6231 7.33799C9.92016 6.18765 8.83374 5.61249 7.36386 5.61249C5.86204 5.61249 4.75165 6.14771 4.03269 7.21816V5.948H0.941162V17.9307H4.03269ZM26.5601 18.2662C28.2376 18.2662 29.5398 17.683 30.4664 16.5167V17.9307H33.5579V5.948H30.4664V7.36195C29.5398 6.19564 28.2376 5.61249 26.5601 5.61249C24.9624 5.61249 23.5924 6.2236 22.45 7.44583C21.3077 8.66806 20.7365 10.1659 20.7365 11.9393C20.7365 13.7128 21.3077 15.2106 22.45 16.4328C23.5924 17.6551 24.9624 18.2662 26.5601 18.2662ZM27.1352 15.3184C26.1766 15.3184 25.3858 15.0069 24.7627 14.3838C24.1396 13.7447 23.828 12.9299 23.828 11.9393C23.828 10.9488 24.1396 10.1379 24.7627 9.50685C25.3858 8.87576 26.1766 8.56022 27.1352 8.56022C28.0939 8.56022 28.8887 8.87576 29.5198 9.50685C30.1509 10.1379 30.4664 10.9488 30.4664 11.9393C30.4664 12.9299 30.1509 13.7407 29.5198 14.3718C28.8887 15.0029 28.0939 15.3184 27.1352 15.3184ZM39.4534 17.9307V12.2029C39.4534 11.0526 39.8249 10.2298 40.5678 9.73452C41.3107 9.23924 42.1535 9.04751 43.0961 9.15935V5.70835C42.2813 5.70835 41.5424 5.90007 40.8794 6.28351C40.2163 6.66696 39.741 7.24213 39.4534 8.00902V5.948H36.3619V17.9307H39.4534ZM47.9851 17.9307V12.4905L52.3467 17.9307H55.9415L50.9807 11.8674L55.7978 5.948H52.1071L47.9851 11.2204V1.15494H44.8935V17.9307H47.9851ZM63.4187 18.2662C65.7194 18.2662 67.4609 17.4114 68.6432 15.7019L66.1508 14.264C65.5436 15.0628 64.6489 15.4622 63.4667 15.4622C61.6293 15.4622 60.5029 14.7113 60.0875 13.2095H69.1225C69.2024 12.7621 69.2423 12.3387 69.2423 11.9393C69.2423 10.1499 68.6711 8.64809 67.5288 7.43385C66.3864 6.21961 64.9365 5.61249 63.1791 5.61249C61.3258 5.61249 59.8079 6.21561 58.6257 7.42187C57.4434 8.62812 56.8522 10.1339 56.8522 11.9393C56.8522 13.7607 57.4514 15.2705 58.6496 16.4688C59.8479 17.667 61.4376 18.2662 63.4187 18.2662ZM66.1508 10.813H60.0396C60.2154 10.0461 60.5748 9.45093 61.1181 9.02754C61.6613 8.60416 62.3483 8.39246 63.1791 8.39246C63.8821 8.39246 64.5091 8.59217 65.0603 8.99159C65.6115 9.39102 65.975 9.99814 66.1508 10.813ZM73.7598 17.3315C74.6305 17.9706 76.1283 18.1703 78.2533 17.9307V15.1267C77.6621 15.1587 77.1668 15.1627 76.7674 15.1387C76.368 15.1147 76.0644 15.0069 75.8567 14.8152C75.649 14.6234 75.5452 14.3199 75.5452 13.9045V8.9197H78.2533V5.948H75.5452V2.59286L72.4537 3.5275V5.948H70.3687V8.9197H72.4537V13.9045C72.4537 15.5501 72.889 16.6924 73.7598 17.3315ZM83.7892 17.9307V7.96109H86.9527V5.948H83.7892V5.58852C83.7892 3.59141 84.8437 2.68073 86.9527 2.85648V0.84339C85.2591 0.731552 83.961 1.09103 83.0583 1.92183C82.1556 2.75263 81.7043 3.97486 81.7043 5.58852V5.948H79.787V7.96109H81.7043V17.9307H83.7892ZM94.286 18.2422C96.6346 18.2422 98.3921 17.3395 99.5584 15.5341L97.785 14.5276C97.066 15.6939 95.9157 16.277 94.334 16.277C93.1996 16.277 92.245 15.9815 91.4701 15.3903C90.6952 14.7992 90.2039 13.9684 89.9963 12.8979H100.038C100.086 12.5784 100.11 12.2669 100.11 11.9633C100.11 10.2218 99.5544 8.73197 98.444 7.49376C97.3336 6.25555 95.8997 5.63645 94.1423 5.63645C92.2889 5.63645 90.7791 6.23558 89.6128 7.43385C88.4465 8.63211 87.8633 10.1339 87.8633 11.9393C87.8633 13.7607 88.4585 15.2665 89.6488 16.4568C90.839 17.6471 92.3848 18.2422 94.286 18.2422ZM98.0007 11.0766H89.9963C90.172 10.0221 90.6273 9.17932 91.3623 8.54824C92.0972 7.91715 93.0239 7.60161 94.1423 7.60161C95.1009 7.60161 95.9397 7.89718 96.6586 8.48832C97.3776 9.07947 97.8249 9.94222 98.0007 11.0766ZM108.258 18.2422C110.606 18.2422 112.364 17.3395 113.53 15.5341L111.757 14.5276C111.038 15.6939 109.887 16.277 108.306 16.277C107.171 16.277 106.217 15.9815 105.442 15.3903C104.667 14.7992 104.176 13.9684 103.968 12.8979H114.009C114.057 12.5784 114.081 12.2669 114.081 11.9633C114.081 10.2218 113.526 8.73197 112.416 7.49376C111.305 6.25555 109.871 5.63645 108.114 5.63645C106.261 5.63645 104.751 6.23558 103.585 7.43385C102.418 8.63211 101.835 10.1339 101.835 11.9393C101.835 13.7607 102.43 15.2665 103.621 16.4568C104.811 17.6471 106.357 18.2422 108.258 18.2422ZM111.972 11.0766H103.968C104.144 10.0221 104.599 9.17932 105.334 8.54824C106.069 7.91715 106.996 7.60161 108.114 7.60161C109.073 7.60161 109.911 7.89718 110.63 8.48832C111.349 9.07947 111.797 9.94222 111.972 11.0766ZM121.87 18.2422C123.851 18.2422 125.361 17.4513 126.4 15.8696V17.9307H128.485V1.15494H126.4V8.00902C125.361 6.42731 123.851 5.63645 121.87 5.63645C120.193 5.63645 118.763 6.24757 117.58 7.4698C116.398 8.69203 115.807 10.1819 115.807 11.9393C115.807 13.6968 116.398 15.1866 117.58 16.4089C118.763 17.6311 120.193 18.2422 121.87 18.2422ZM122.134 16.2291C120.935 16.2291 119.929 15.8177 119.114 14.9949C118.299 14.1721 117.892 13.1536 117.892 11.9393C117.892 10.7251 118.299 9.70656 119.114 8.88375C119.929 8.06094 120.935 7.64954 122.134 7.64954C123.348 7.64954 124.363 8.06094 125.177 8.88375C125.992 9.70656 126.4 10.7251 126.4 11.9393C126.4 13.1536 125.992 14.1721 125.177 14.9949C124.363 15.8177 123.348 16.2291 122.134 16.2291Z" fill="#170439"/>
<path d="M132.966 18.1941C133.413 18.1941 133.785 18.0423 134.08 17.7388C134.376 17.4352 134.524 17.0677 134.524 16.6364C134.524 16.205 134.376 15.8375 134.08 15.534C133.785 15.2304 133.413 15.0786 132.966 15.0786C132.535 15.0786 132.167 15.2304 131.864 15.534C131.56 15.8375 131.408 16.205 131.408 16.6364C131.408 17.0677 131.56 17.4352 131.864 17.7388C132.167 18.0423 132.535 18.1941 132.966 18.1941Z" fill="#FFC400"/>
</svg>
