<svg width="574" height="427" viewBox="0 0 574 427" fill="none" xmlns="http://www.w3.org/2000/svg">
<path d="M255.918 142.267L257.331 125.235L245.221 121.427L245.625 119.624L258.542 124.633L257.331 143.268L255.918 142.267Z" fill="#F7CDCD"/>
<path d="M551.597 423.794C551.597 421.991 428.078 420.588 275.698 420.588C123.317 420.588 0 421.991 0 423.794C0 425.597 123.519 427 275.899 427C428.28 427 551.597 425.597 551.597 423.794Z" fill="#CE9393"/>
<path d="M92.4376 423.994H86.181C132.4 366.286 215.755 304.971 311.018 317.795C411.73 331.221 472.481 423.193 473.086 423.994H466.426C465.82 423.193 406.685 337.232 309.807 324.408C191.132 308.578 107.777 404.558 92.4376 423.994Z" fill="#8E7B69"/>
<path d="M200.618 247.664C200.618 248.866 200.416 250.269 200.416 251.671C220.599 265.698 235.13 283.531 228.268 304.17C221.002 325.61 190.93 342.241 165.702 352.861C164.491 354.464 163.481 356.067 162.27 357.47C190.526 346.649 227.057 328.415 235.13 304.57C241.791 283.531 226.048 264.095 200.618 247.664Z" fill="#66594C"/>
<path d="M411.528 360.676C385.291 341.039 351.384 323.005 311.018 317.595C215.755 304.971 132.4 366.086 86.181 423.794H92.4376C107.978 404.357 191.334 308.378 309.807 324.207C350.173 329.617 383.878 347.651 409.712 366.887C410.116 364.884 410.721 362.679 411.528 360.676Z" fill="#66594C"/>
<path d="M272.266 255.278C278.119 262.892 294.871 263.494 309.806 257.282C324.742 251.07 370.759 240.45 370.759 240.45L370.153 236.243C370.153 236.243 285.991 230.632 281.349 236.042C276.908 241.653 270.45 252.874 272.266 255.278Z" fill="#FFDEB3"/>
<path d="M319.696 247.263C289.624 256.28 302.137 239.248 292.45 234.239C290.835 234.64 282.156 235.842 281.551 236.443C276.909 241.853 270.45 253.074 272.267 255.679C278.12 263.293 294.871 263.894 309.807 257.683C324.742 251.471 370.759 240.851 370.759 240.851L370.355 238.046C355.622 240.05 330.393 244.057 319.696 247.263Z" fill="#F9AD8F"/>
<path d="M285.991 232.836C291.44 231.834 299.513 241.051 291.238 252.473L282.358 249.668L285.991 232.836Z" fill="#F9F5E4"/>
<path d="M199.407 167.313C194.361 193.963 247.24 251.671 266.01 257.683C284.578 263.493 291.44 247.063 290.431 239.248C289.422 231.433 264.194 207.989 262.175 205.385C259.955 202.579 207.278 125.234 199.407 167.313Z" fill="#EDEAD6"/>
<path d="M268.634 226.224C251.277 207.188 240.58 188.553 245.02 184.746C245.222 184.546 245.625 184.345 246.029 184.145C229.277 163.707 204.654 139.461 199.407 167.313C194.361 193.963 247.24 251.671 266.01 257.683C280.138 262.091 287.404 253.675 289.624 245.861C283.166 240.851 275.9 234.239 268.634 226.224Z" fill="#E5DFC1"/>
<path d="M69.0256 137.457C113.831 202.379 182.251 178.935 198.398 154.089C198.398 154.089 242.598 324.207 455.123 280.926C455.123 280.926 448.059 352.861 367.732 337.432C211.516 347.852 85.7773 211.396 69.0256 137.457Z" fill="#EFCECE"/>
<path d="M198.801 154.89C193.755 173.525 156.417 173.525 140.271 182.542C125.941 190.557 115.85 189.355 85.979 167.514C132.4 239.448 244.011 345.647 367.731 337.232C448.059 352.861 455.123 280.726 455.123 280.726C251.478 322.404 202.434 167.914 198.801 154.89Z" fill="#D89C9C"/>
<path d="M390.74 287.939C352.796 303.569 303.146 312.986 248.653 312.986C244.818 312.986 240.983 312.986 237.148 312.786C276.505 330.419 320.705 340.638 367.731 337.432C448.059 353.061 455.123 280.926 455.123 280.926C431.711 285.535 410.317 287.739 390.74 287.939Z" fill="#BC6F6F"/>
<path d="M171.554 146.675L176.398 94.3766L205.865 109.605L213.736 153.688L171.554 146.675Z" fill="#F9C7A2"/>
<path d="M246.433 302.968C208.287 284.333 167.518 250.469 149.959 195.967C142.087 171.321 168.123 149.68 175.187 148.077C207.076 140.062 233.516 158.497 240.378 180.137C257.937 235.441 274.89 251.671 329.384 260.288C319.898 266.9 317.073 269.906 306.981 275.115C296.89 280.125 263.588 311.183 246.433 302.968Z" fill="#EDEAD6"/>
<path d="M165.297 155.491L205.865 165.109L211.516 156.693L218.58 160.701L218.176 153.287L207.681 151.083L169.738 151.283L165.297 155.491Z" fill="#DDD3B8"/>
<path d="M281.147 292.548C265.606 284.934 254.909 272.911 234.928 257.282C208.085 236.242 187.701 187.351 158.435 178.334C147.335 168.916 180.637 156.894 185.884 145.873C182.251 146.073 178.618 146.675 174.784 147.676C167.72 149.48 138.656 171.722 146.528 196.368C164.087 250.87 208.085 284.332 246.433 302.967C255.515 307.376 269.037 300.763 281.349 292.748C281.349 292.748 281.349 292.748 281.147 292.548Z" fill="#DDD3B8"/>
<path d="M361.878 325.61C234.121 333.224 138.858 236.443 68.4197 138.059C72.2544 159.298 78.7129 185.548 103.941 220.413C169.738 311.183 260.358 354.063 333.824 357.87C438.169 363.281 453.105 302.767 453.71 293.149C442.408 307.576 415.968 331.421 361.878 325.61Z" fill="#E5BDBD"/>
<path d="M404.868 326.011C387.914 326.011 380.245 327.614 363.695 325.81C363.089 325.81 362.484 325.81 361.878 325.61C234.121 333.224 138.858 236.443 68.4197 138.059C72.2544 159.298 78.7129 185.548 103.941 220.413C169.738 311.183 260.359 354.063 333.824 357.87C383.474 360.475 412.941 348.052 430.096 333.425C423.234 334.827 412.941 326.011 404.868 326.011Z" fill="#DBABAB"/>
<path d="M415.565 337.031C417.986 337.031 420.61 337.632 423.234 338.634C425.858 336.831 428.28 335.028 430.5 333.224C423.436 334.827 413.143 326.011 405.069 326.011C388.116 326.011 380.446 327.614 363.896 325.81C363.291 325.81 362.685 325.81 362.08 325.61C234.121 333.224 138.858 236.443 68.4197 138.059C69.6306 145.272 71.2453 153.087 73.869 161.502C215.956 347.25 321.311 339.436 415.565 337.031Z" fill="#CE9393"/>
<path d="M338.87 351.859C262.579 347.852 168.527 303.569 100.107 209.192C88.6025 193.362 80.933 179.336 75.4836 166.712C80.5294 182.141 89.0061 199.774 103.941 220.413C169.738 311.183 260.358 354.063 333.824 357.87C383.474 360.475 412.941 348.052 430.096 333.425C429.894 333.425 429.491 333.425 429.087 333.625C410.721 345.247 382.263 354.063 338.87 351.859Z" fill="#CE9393"/>
<path d="M298.302 273.312C283.165 287.739 333.824 310.382 354.814 311.784C375.804 313.187 434.133 305.773 434.133 305.773L439.38 244.458C439.38 244.658 321.109 251.872 298.302 273.312Z" fill="#7F9DBA"/>
<path d="M413.748 249.467C413.748 248.466 414.555 247.063 416.977 246.462C381.455 249.668 314.852 257.883 298.302 273.512C283.165 287.94 333.824 310.582 354.814 311.985C375.804 313.387 434.133 305.973 434.133 305.973L438.371 256.881C425.656 256.681 413.95 253.675 413.748 249.467Z" fill="#6C8DA8"/>
<path d="M428.28 305.773C417.179 303.368 421.418 257.282 435.344 245.66C449.472 234.038 453.508 278.722 449.876 291.346C446.848 302.166 436.959 307.576 428.28 305.773Z" fill="#4C6B84"/>
<path d="M422.427 280.726C422.427 280.726 448.462 275.917 450.884 269.705C453.71 262.291 450.279 244.859 431.307 250.069C427.472 256.681 423.839 263.494 422.427 280.726Z" fill="#F9AD8F"/>
<path d="M250.873 289.743C236.341 304.971 281.753 317.996 302.541 321.602C333.622 327.013 386.098 326.812 386.098 326.812L368.741 264.095C368.741 264.095 268.836 271.108 250.873 289.743Z" fill="#7F9DBA"/>
<path d="M370.355 274.715C353.2 272.31 340.485 275.917 339.879 273.512C339.677 273.112 350.98 266.299 351.383 265.898C314.247 265.898 261.973 278.121 250.873 289.743C236.341 304.971 281.753 317.996 302.541 321.603C333.622 327.013 386.098 326.812 386.098 326.812L371.566 274.514C371.163 274.715 370.759 274.915 370.355 274.715Z" fill="#6C8DA8"/>
<path d="M317.073 267.1C317.073 267.1 287 302.567 294.468 308.979C301.935 315.391 374.594 324.608 374.594 324.608L377.419 327.413C377.419 327.413 276.505 327.413 263.992 303.969C251.478 280.525 309.807 268.102 309.807 268.102L317.073 267.1Z" fill="#547A93"/>
<path d="M268.432 309.379L311.421 269.705L292.247 263.093C292.247 263.093 235.937 286.136 241.589 298.76C249.258 307.175 268.432 309.379 268.432 309.379Z" fill="#EDEAD6"/>
<path d="M275.899 269.505C252.084 257.081 214.947 219.211 208.892 160.3L211.113 159.499C211.113 159.499 215.553 222.216 285.789 263.293L290.633 269.104L275.899 269.505Z" fill="#DDD3B8"/>
<path d="M242.598 264.295C232.506 270.507 236.946 290.344 241.589 298.76C247.643 304.571 256.927 307.576 268.432 309.38C276.505 307.376 311.623 269.705 311.623 269.705C307.183 269.705 294.871 265.497 290.431 266.7C281.954 269.104 275.698 270.707 268.432 270.707C261.973 270.507 251.68 270.306 242.598 264.295Z" fill="#DDD3B8"/>
<path d="M278.119 266.7C254.102 254.276 216.965 216.606 210.507 158.096L212.727 157.295C212.727 157.295 217.571 219.611 288.211 260.488L293.055 266.299L278.119 266.7Z" fill="#917E73"/>
<path d="M53.4845 423.996H47.2278C93.4465 366.288 176.802 304.973 272.065 317.797C372.777 331.222 433.527 423.194 434.133 423.996H427.473C426.867 423.194 367.731 337.233 270.854 324.409C152.38 308.58 69.0253 404.56 53.4845 423.996Z" fill="#8E7B69"/>
<path d="M379.235 365.885C352.19 344.245 315.861 323.406 272.065 317.595C176.802 304.971 93.4465 366.086 47.2278 423.794H53.4845C69.0252 404.357 152.38 308.378 270.854 324.207C314.247 330.018 350.172 350.456 376.612 371.296C377.419 369.492 378.226 367.689 379.235 365.885Z" fill="#66594C"/>
<path d="M439.986 251.271C433.931 258.083 433.729 286.136 453.508 316.593C466.627 336.631 520.313 390.932 534.845 412.573L540.294 410.168C501.947 354.664 453.306 236.243 439.986 251.271Z" fill="#FFDEB3"/>
<path d="M458.958 315.992C440.995 287.539 441.399 260.488 446.444 251.471C443.821 249.668 440.389 249.067 438.775 251.07C432.72 257.883 432.316 287.138 452.096 317.595C465.214 337.633 520.314 390.932 534.845 412.573L539.689 410.569C523.946 387.726 471.471 335.629 458.958 315.992Z" fill="#F9AD8F"/>
<path d="M379.639 326.211C368.539 323.807 352.998 276.718 367.126 265.097C381.254 253.475 413.143 301.966 409.51 314.589C406.281 325.209 388.116 328.014 379.639 326.211Z" fill="#4C6B84"/>
<path d="M363.09 295.353C363.09 295.353 381.86 292.348 384.282 286.136C387.107 278.722 384.483 260.889 365.512 266.7C361.475 273.312 359.658 279.123 363.09 295.353Z" fill="#F9AD8F"/>
<path d="M364.905 325.009C205.057 322.003 123.72 208.591 72.2542 136.456L66.8049 128.641L61.1537 132.248L66.6031 140.062C96.8773 182.742 138.656 241.452 202.232 282.73C251.882 314.99 307.182 331.02 367.126 331.822C366.116 329.618 365.713 327.213 364.905 325.009Z" fill="#8E7B69"/>
<path d="M367.933 327.814C367.327 326.011 365.713 324.608 364.703 325.009C363.492 325.209 363.291 326.812 363.896 328.616C364.502 330.419 366.116 331.822 367.125 331.421C368.336 331.22 368.74 329.617 367.933 327.814Z" fill="#66594C"/>
<path d="M364.905 325.009C257.936 323.005 186.085 271.509 134.821 216.205C134.013 218.609 133.206 221.014 132.399 223.218C152.38 244.458 175.186 265.097 202.231 282.529C251.881 314.79 304.962 330.82 367.125 331.621C366.116 329.617 365.712 327.213 364.905 325.009Z" fill="#66594C"/>
<path d="M162.472 247.664C162.472 248.866 162.27 250.269 162.27 251.671C182.453 265.698 196.984 283.531 190.122 304.17C182.856 325.61 152.784 342.241 127.555 352.861C126.345 354.464 125.335 356.067 124.124 357.47C152.38 346.649 188.911 328.415 196.984 304.571C203.847 283.531 187.902 264.095 162.472 247.664Z" fill="#66594C"/>
<path d="M204.452 156.493L212.727 163.506L214.947 152.886L210.91 148.879L204.452 149.881V156.493Z" fill="#917E73"/>
<path d="M163.481 153.287L168.93 141.665L207.682 147.476L212.525 142.467L217.773 151.684L217.369 157.896L209.296 151.283L205.058 161.703L163.481 153.287Z" fill="#EDEAD6"/>
<path d="M340.081 268.904L282.156 270.907L281.147 265.698L363.896 245.059L391.95 249.267L340.081 268.904Z" fill="#C4A1AA"/>
<path d="M340.888 265.097L281.147 266.099L281.954 272.11L339.273 269.906L372.575 256.881L340.888 265.097Z" fill="#AA818D"/>
<path d="M341.494 269.305L361.071 170.92L436.757 167.313L412.739 247.063L341.494 269.305Z" fill="#DDBCC6"/>
<path d="M362.685 187.15C387.309 182.141 411.73 188.152 427.271 199.774L436.958 167.514L361.273 171.12L357.842 188.553C359.254 187.952 360.869 187.351 362.685 187.15Z" fill="#E8CDD6"/>
<path d="M366.722 170.519L361.071 170.92L340.888 263.494L337.457 268.303L339.274 269.906L345.53 268.102L366.722 170.519Z" fill="#AA818D"/>
<path d="M147.133 178.935C137.445 203.782 175.187 271.909 191.535 282.128C207.883 292.348 225.24 271.909 225.644 264.095C226.048 256.28 202.837 229.83 201.425 226.624C200.214 223.418 162.472 139.461 147.133 178.935Z" fill="#EDEAD6"/>
<path d="M211.113 249.467C206.269 246.261 186.692 264.295 178.417 255.479C160.858 236.243 155.408 185.548 159.848 166.913C154.399 165.911 149.151 170.92 145.72 179.737C136.033 204.583 174.986 273.713 191.334 284.132C204.856 292.548 219.186 278.923 223.828 269.505C214.544 276.518 224.837 258.284 211.113 249.467Z" fill="#DDD3B8"/>
<path d="M370.759 268.102C366.722 277.52 379.235 320.4 406.684 339.236C434.738 358.472 508.607 410.97 520.919 420.989L525.157 415.178C474.297 376.706 379.639 246.862 370.759 268.102Z" fill="#FFDEB3"/>
<path d="M412.739 339.436C385.291 320.601 375.401 277.119 379.438 267.501C375.199 265.097 369.75 264.896 368.539 267.902C364.502 277.32 376.612 321.202 404.263 340.237C432.317 359.474 508.81 411.17 520.919 420.989L524.35 416.38C502.957 400.751 437.968 356.869 412.739 339.436Z" fill="#F9AD8F"/>
<path d="M246.231 141.866L248.451 174.527L260.964 175.328L269.037 144.27L246.231 141.866Z" fill="#EA8888"/>
<path d="M269.037 144.871L246.836 143.869L247.441 148.077L267.826 148.879L269.037 144.871Z" fill="#D86F6F"/>
<path d="M255.918 152.686C256.12 148.678 256.928 145.072 258.139 141.866H246.432L248.653 174.527L261.166 175.328L261.57 173.725C257.533 170.92 255.111 162.504 255.918 152.686Z" fill="#D86F6F"/>
<path d="M198.599 294.351L196.379 288.14L183.462 291.145C183.462 291.145 166.912 259.686 211.314 231.634C211.314 231.634 224.433 235.441 226.25 244.257C231.699 267.902 216.562 287.138 198.599 294.351Z" fill="#F9F5E4"/>
<path d="M213.332 268.102C203.039 268.102 194.562 258.083 193.957 245.66C171.958 269.104 183.462 291.145 183.462 291.145L196.379 288.14L198.599 294.351C211.92 288.941 223.626 277.119 226.653 261.69C223.222 265.698 218.58 268.102 213.332 268.102Z" fill="#EFE8CE"/>
<path d="M204.25 282.93C215.149 282.128 226.249 265.698 228.47 244.658C230.69 223.619 244.01 163.907 244.01 163.907L240.579 161.903C240.579 161.903 193.15 248.666 191.939 258.284C190.728 266.9 200.617 283.331 204.25 282.93Z" fill="#FFDEB3"/>
<path d="M206.672 272.31C203.039 272.51 199.204 257.282 200.214 248.666C201.223 240.851 230.69 182.943 241.387 162.304L240.579 161.903C240.579 161.903 193.15 248.666 191.939 258.284C190.728 266.9 200.617 283.13 204.25 282.93C214.745 282.128 225.24 266.9 228.066 247.263C223.626 261.69 215.149 271.709 206.672 272.31Z" fill="#F9AD8F"/>
<path d="M423.032 290.544C422.427 275.115 428.28 252.473 438.371 244.859C438.775 244.458 439.38 244.258 439.784 244.057C437.564 242.855 435.142 243.055 432.316 245.259C422.023 253.074 417.179 276.117 418.188 291.546C419.601 290.945 421.216 290.544 423.032 290.544Z" fill="#D3E6F4"/>
<path d="M429.894 256.681C427.876 256.481 426.06 256.08 424.445 255.479C415.766 273.512 414.757 304.17 424.445 305.973C426.867 306.374 429.491 306.374 431.913 305.973C431.509 305.973 431.105 305.773 430.5 305.773C421.014 303.97 421.821 274.915 429.894 256.681Z" fill="#9AB4C1"/>
<path d="M375.199 322.604C365.309 310.782 359.86 277.319 369.548 264.295C369.951 263.894 370.355 263.293 370.759 262.892C368.135 262.291 365.511 263.293 363.291 266.299C353.805 279.123 361.071 313.187 371.162 323.806C372.172 323.406 373.584 322.805 375.199 322.604Z" fill="#D3E6F4"/>
<path d="M364.906 278.321C362.888 278.522 360.87 278.722 359.053 278.522C356.631 297.157 365.512 326.011 376.209 327.213C379.034 327.614 381.86 327.413 384.483 326.612C383.878 326.612 383.474 326.612 382.869 326.411C371.97 325.41 362.888 297.357 364.906 278.321Z" fill="#9AB4C1"/>
<path d="M295.275 322.204C295.275 320.2 293.66 318.396 291.44 318.396C289.22 318.396 287.605 319.999 287.605 322.204C287.605 324.408 289.22 326.011 291.44 326.011C293.66 326.011 295.275 324.207 295.275 322.204Z" fill="#B7A697"/>
<path d="M174.985 330.619C174.985 329.618 174.178 328.616 172.967 328.616C171.756 328.616 170.949 329.417 170.949 330.619C170.949 331.621 171.756 332.623 172.967 332.623C174.178 332.623 174.985 331.822 174.985 330.619Z" fill="#B7A697"/>
<path d="M342.906 266.7C342.906 265.898 342.301 265.297 341.494 265.297C340.686 265.297 340.081 265.898 340.081 266.7C340.081 267.501 340.686 268.102 341.494 268.102C342.301 268.102 342.906 267.501 342.906 266.7Z" fill="#966E7C"/>
<path d="M402.648 214.201C403.859 209.993 402.244 206.587 399.015 206.386C395.584 206.186 391.345 209.392 389.731 213.8C387.914 218.409 389.529 222.417 393.566 222.417C397.199 222.417 401.235 218.609 402.648 214.201Z" fill="#EAD0D9"/>
<path d="M399.015 206.387C396.997 206.186 394.777 207.188 392.96 208.991C394.575 207.789 396.391 207.188 398.006 207.188C401.235 207.388 402.85 210.795 401.639 215.003C401.033 217.207 399.62 219.01 398.208 220.613C400.226 219.01 402.042 216.806 402.85 214.201C403.859 209.993 402.244 206.587 399.015 206.387Z" fill="#C4A1AA"/>
<path d="M535.451 416.38L574 405.76C574 405.76 539.689 397.344 532.827 405.159C528.185 410.369 535.451 416.38 535.451 416.38Z" fill="#E8C8C8"/>
<path d="M522.534 424.395L551.597 394.74C551.597 394.74 518.094 402.554 516.277 412.573C514.864 419.586 522.534 424.395 522.534 424.395Z" fill="#E8C8C8"/>
<path d="M270.45 143.268L245.02 142.066L244.212 146.474L270.45 146.675V143.268Z" fill="#F7CDCD"/>
<path d="M269.037 139.662L246.836 138.66L246.029 142.868L269.037 143.268V139.662Z" fill="#F7CDCD"/>
<path opacity="0.4" d="M203.242 181.34C214.746 183.143 226.452 173.725 227.057 159.899C224.434 157.495 221.406 155.291 218.177 153.487V153.287L217.571 153.087V151.684L212.526 142.266L211.718 143.068L205.865 109.605L196.379 104.796C189.517 102.191 182.251 100.789 175.793 99.7867L171.756 142.066L168.527 141.665L163.481 153.287L164.894 153.487C160.05 157.294 154.803 162.905 150.766 169.317C173.573 158.296 190.123 179.336 203.242 181.34Z" fill="#AF5652"/>
<path d="M182.856 119.023C166.71 87.564 139.463 72.9366 149.151 45.6855C159.041 18.6348 173.572 12.8239 181.847 16.6311C181.847 16.6311 206.672 -14.4271 217.974 8.2153C229.277 30.8577 215.149 85.3598 215.149 85.3598L182.856 119.023Z" fill="#965E4D"/>
<path d="M196.581 28.0524C189.719 23.4437 181.04 8.81632 167.114 18.8351C160.857 23.043 154.399 31.2584 149.151 45.8858C139.262 73.1368 166.71 87.5639 182.857 119.023L215.149 85.3597C215.149 85.3597 221.406 61.1143 222.213 38.2715C213.131 46.0862 210.709 37.6704 196.581 28.0524Z" fill="#7C4437"/>
<path d="M174.178 84.9591C177.003 98.3842 174.783 118.021 179.829 124.032C183.866 129.042 198.801 142.467 224.433 136.656C224.433 136.656 225.24 111.208 225.442 91.3711C225.442 78.547 219.791 73.5377 225.846 67.1257C228.873 63.9196 222.213 23.8446 200.416 25.4476C182.856 26.8502 163.279 32.06 174.178 84.9591Z" fill="#FFDEB3"/>
<path d="M180.434 110.006L189.718 110.407C189.718 110.407 197.59 16.2304 177.811 30.8578C158.031 45.4852 167.316 78.5472 167.316 78.5472L180.434 110.006Z" fill="#7C4437"/>
<path d="M184.673 111.208C187.499 101.59 175.389 81.3523 169.94 85.9609C164.692 90.5696 161.463 100.388 165.096 103.995C168.729 107.802 182.453 119.023 184.673 111.208Z" fill="#FFDEB3"/>
<path d="M180.636 107.602C182.251 101.991 175.187 90.1689 171.958 92.7737C168.93 95.579 167.114 101.19 169.132 103.394C171.15 105.798 179.223 112.21 180.636 107.602Z" fill="#F9AD8F"/>
<path d="M181.848 110.607C182.857 107 178.215 99.386 176.398 101.189C174.38 102.993 173.169 106.6 174.582 108.002C175.793 109.204 181.04 113.613 181.848 110.607Z" fill="#FFDEB3"/>
<path d="M201.425 105.798C201.425 105.798 201.223 120.025 204.251 121.427C207.278 122.83 220.801 123.03 221.406 121.828C222.213 120.626 222.617 108.403 222.617 108.403L201.425 105.798Z" fill="#513633"/>
<path d="M202.03 106.399C202.03 106.399 201.829 119.824 204.654 121.227C207.48 122.63 220.195 122.83 220.801 121.628C221.406 120.425 222.012 109.004 222.012 109.004L202.03 106.399Z" fill="#FFFAE9"/>
<path d="M201.425 107.401C200.012 107.201 199.003 106.199 199.81 105.397C200.819 104.396 201.828 106.199 201.828 106.199L201.425 107.401Z" fill="#513633"/>
<path d="M222.011 108.603C222.617 108.002 223.424 107.602 223.626 108.403C223.828 109.205 222.617 109.205 222.617 109.205L222.011 108.603Z" fill="#513633"/>
<path d="M216.966 125.235C216.966 124.433 214.947 124.433 212.727 124.433C210.507 124.433 209.094 124.233 209.094 125.034C209.094 125.836 210.709 126.437 212.929 126.437C215.149 126.437 216.966 125.836 216.966 125.235Z" fill="#F9AD8F"/>
<path d="M195.37 68.5283C193.755 68.3279 193.554 63.5189 194.966 62.1163C196.379 60.7136 210.709 57.5076 211.516 58.3091C212.324 59.1106 212.525 66.3241 211.314 66.9253C210.305 67.326 197.186 68.7286 195.37 68.5283Z" fill="#7C4437"/>
<path d="M229.277 68.7287C230.69 68.5284 230.892 63.7194 229.681 62.3167C228.47 60.9141 216.764 57.7081 216.158 58.5096C215.553 59.3111 215.351 66.5246 216.36 67.1257C217.167 67.5265 227.864 68.9291 229.277 68.7287Z" fill="#7C4437"/>
<path d="M206.269 77.5451C206.269 74.7399 204.856 72.3354 203.039 72.3354C201.223 72.3354 199.81 74.7399 199.81 77.5451C199.81 80.3504 201.223 82.7549 203.039 82.7549C204.856 82.7549 206.269 80.5508 206.269 77.5451Z" fill="#5E443F"/>
<path d="M222.011 77.9458C222.011 75.1406 220.8 72.7361 219.387 72.7361C217.975 72.7361 216.764 75.1406 216.764 77.9458C216.764 80.7511 217.975 83.1556 219.387 83.1556C220.8 82.9552 222.011 80.7511 222.011 77.9458Z" fill="#5E443F"/>
<path d="M212.526 101.991C218.177 103.794 226.653 102.792 227.057 100.789C227.663 98.785 212.324 67.9272 212.324 67.9272C212.324 67.9272 210.709 101.39 212.526 101.991Z" fill="#FFDEB3"/>
<path d="M212.526 67.9272C212.526 67.9272 212.526 68.7287 212.324 70.1313C216.159 77.7456 226.25 98.5846 225.644 100.188C225.241 101.991 217.773 103.193 212.324 101.791C212.324 101.991 212.526 101.991 212.526 102.191C218.177 103.995 226.654 102.993 227.057 100.989C227.865 98.785 212.526 67.9272 212.526 67.9272Z" fill="#F9AD8F"/>
<path d="M260.762 158.096C258.34 157.295 242.396 156.092 239.974 163.105L242.799 168.916C246.029 167.514 255.515 169.918 256.322 169.317C257.533 168.516 263.184 158.697 260.762 158.096Z" fill="#FFDEB3"/>
<path d="M254.505 169.317C257.735 169.718 262.175 173.725 262.78 172.523C263.79 170.519 261.569 169.317 257.331 166.512C252.891 163.506 254.505 169.317 254.505 169.317Z" fill="#FFDEB3"/>
<path d="M258.542 160.902C261.771 161.102 265.808 161.903 266.212 160.501C267.221 157.295 263.184 157.896 259.955 157.495C254.707 156.894 258.542 160.902 258.542 160.902Z" fill="#FFDEB3"/>
<path d="M252.285 158.096C249.863 156.693 246.836 156.293 246.836 154.289C246.836 150.883 241.992 158.296 241.185 161.102C239.772 166.311 252.285 158.096 252.285 158.096Z" fill="#FFDEB3"/>
<path d="M257.533 165.109C260.762 165.71 264.597 167.113 265.203 165.71C266.615 162.705 262.579 162.705 259.35 161.903C254.102 160.701 257.533 165.109 257.533 165.109Z" fill="#FFDEB3"/>
<path d="M264.597 145.873C258.34 144.871 253.496 141.866 253.9 139.261C253.9 139.261 253.9 139.06 254.102 139.06L246.634 138.66L246.029 142.266H244.818L244.01 146.675L270.45 146.875V146.274C268.633 146.274 266.817 146.274 264.597 145.873Z" fill="#E2B0B0"/>
</svg>
