<svg width="36" height="36" viewBox="0 0 36 36" fill="none" xmlns="http://www.w3.org/2000/svg">
<path opacity="0.4" d="M26.5381 16.3249C28.9911 16.3249 30.981 14.3364 30.981 11.8834C30.981 9.43039 28.9911 7.44189 26.5381 7.44189" stroke="#200E32" stroke-width="2" stroke-linecap="round" stroke-linejoin="round"/>
<path d="M28.5807 21.1515C29.3132 21.202 30.0415 21.3059 30.7586 21.4672C31.7549 21.6623 32.9534 22.0707 33.38 22.9646C33.6522 23.5371 33.6522 24.2037 33.38 24.7776C32.9548 25.6716 31.7549 26.0785 30.7586 26.2834" stroke="#200E32" stroke-width="2" stroke-linecap="round" stroke-linejoin="round"/>
<path opacity="0.4" d="M9.23151 16.3249C6.77852 16.3249 4.78862 14.3364 4.78862 11.8834C4.78862 9.43039 6.77852 7.44189 9.23151 7.44189" stroke="#200E32" stroke-width="2" stroke-linecap="round" stroke-linejoin="round"/>
<path d="M7.18927 21.1515C6.45674 21.202 5.72842 21.3059 5.01133 21.4672C4.01498 21.6623 2.81655 22.0707 2.39135 22.9646C2.1177 23.5371 2.1177 24.2037 2.39135 24.7776C2.81515 25.6716 4.01498 26.0785 5.01133 26.2834" stroke="#200E32" stroke-width="2" stroke-linecap="round" stroke-linejoin="round"/>
<path fill-rule="evenodd" clip-rule="evenodd" d="M17.878 22.108C22.8485 22.108 27.0949 22.8602 27.0949 25.8703C27.0949 28.879 22.8766 29.6593 17.878 29.6593C12.9061 29.6593 8.66104 28.9071 8.66104 25.897C8.66104 22.8869 12.8794 22.108 17.878 22.108Z" stroke="#200E32" stroke-width="2" stroke-linecap="round" stroke-linejoin="round"/>
<path opacity="0.4" fill-rule="evenodd" clip-rule="evenodd" d="M17.8781 17.8145C14.6 17.8145 11.9716 15.1861 11.9716 11.9065C11.9716 8.6284 14.6 6 17.8781 6C21.1563 6 23.7847 8.6284 23.7847 11.9065C23.7847 15.1861 21.1563 17.8145 17.8781 17.8145Z" stroke="#200E32" stroke-width="2" stroke-linecap="round" stroke-linejoin="round"/>
</svg>
