<svg width="182" height="35" viewBox="0 0 182 35" fill="none" xmlns="http://www.w3.org/2000/svg">
<path d="M33.7121 23.3117L36.6691 26.6999L35.3252 29.3818L27.8724 29.0159L27.7502 26.9438L30.1938 27.4314L33.6148 27.6751L33.7371 26.8218L29.2164 24.6277L33.7121 23.3117Z" fill="#787878"/>
<path d="M6.24747 14.7537L2.09348 16.2165L1.11604 15.1194L0.627326 15.2413L1.727 17.3137L7.10266 15.8509L6.24747 14.7537Z" fill="#787878"/>
<path d="M18.4359 29.5618L19.2183 31.6147L23.2515 33.4424L23.598 34.6121H25.5975L24.5752 32.429L21.0321 30.4786L21.1544 24.1399L12.3577 21.4579L11.9912 22.9208L18.4359 29.5618Z" fill="#787878"/>
<path d="M33.7391 34.6121H31.7842L30.5625 32.673L33.1281 23.2866L35.3275 23.1647L32.667 32.498L33.7391 34.6121Z" fill="#787878"/>
<path d="M6.37123 19.6298L6.37123 24.9935L5.02732 25.1152L6.85995 34.6235H8.93706L8.69258 33.1606L7.71514 27.6752L12.3741 22.8203L13.2133 21.9459L6.37123 19.6298Z" fill="#787878"/>
<path d="M45.2226 20.9705V22.0675L41.1296 26.1512H39.236V22.1894L33.7131 23.5554L24.9414 25.7244L6.37032 19.7514L6.24832 14.7536L15.6557 9.99969L32.7606 0.857069L45.2226 13.1688V17.9229H50.354L45.2226 20.9705Z" fill="#787878"/>
<path fill-rule="evenodd" clip-rule="evenodd" d="M65.7067 27.994C62.8363 27.994 60.9618 26.9125 59.5266 25.1295L61.5768 23.2589C62.6899 24.6034 64.0665 25.4218 65.8825 25.4218C67.7277 25.4218 68.665 24.6619 68.665 23.3758C68.665 22.4112 68.0792 21.6805 66.4976 21.4759L65.0916 21.3005C61.9869 20.9205 60.0831 19.5759 60.0831 16.7699C60.0831 13.8178 62.397 12.0932 65.736 12.0932C68.4893 12.0932 70.0416 12.9993 71.4183 14.5193L69.4559 16.3899C68.665 15.4546 67.3763 14.6654 65.736 14.6654C63.9786 14.6654 63.1585 15.4254 63.1585 16.5653C63.1585 17.7345 63.8908 18.2606 65.5017 18.5237L66.9076 18.6991C70.2467 19.196 71.7405 20.6574 71.7405 23.1127C71.7405 26.0356 69.368 27.994 65.7067 27.994ZM81.6844 27.994C77.3495 27.994 74.6841 24.8957 74.6841 20.0436C74.6841 15.1915 77.3495 12.0932 81.6844 12.0932C86.1658 12.0932 88.4504 15.4546 88.4504 19.6636V20.862H77.9939V21.3589C77.9939 23.6973 79.4291 25.3634 82.0066 25.3634C83.8812 25.3634 85.1406 24.4865 86.0193 23.0835L87.8939 24.9249C86.7516 26.7664 84.5255 27.994 81.6844 27.994ZM81.6844 14.5777C79.4876 14.5777 77.9939 16.2146 77.9939 18.5529V18.7575H85.082V18.4652C85.082 16.1269 83.7933 14.5777 81.6844 14.5777ZM95.5532 27.6433H92.3606V12.444H95.5532V14.9577H95.6997C96.344 13.3209 97.6328 12.0932 99.976 12.0932C103.081 12.0932 104.926 14.2562 104.926 17.9976V27.6433H101.733V18.4068C101.733 16.0392 100.825 14.8408 98.863 14.8408C97.1934 14.8408 95.5532 15.6884 95.5532 17.4714V27.6433ZM114.548 27.994C111.677 27.994 109.803 26.9125 108.368 25.1295L110.418 23.2589C111.531 24.6034 112.908 25.4218 114.723 25.4218C116.569 25.4218 117.506 24.6619 117.506 23.3758C117.506 22.4112 116.92 21.6805 115.339 21.4759L113.933 21.3005C110.828 20.9205 108.924 19.5759 108.924 16.7699C108.924 13.8178 111.238 12.0932 114.577 12.0932C117.33 12.0932 118.883 12.9993 120.259 14.5193L118.297 16.3899C117.506 15.4546 116.217 14.6654 114.577 14.6654C112.82 14.6654 112 15.4254 112 16.5653C112 17.7345 112.732 18.2606 114.343 18.5237L115.749 18.6991C119.088 19.196 120.581 20.6574 120.581 23.1127C120.581 26.0356 118.209 27.994 114.548 27.994ZM126.161 9.72565C124.843 9.72565 124.257 9.02415 124.257 8.05958V7.56268C124.257 6.59811 124.843 5.89661 126.161 5.89661C127.479 5.89661 128.036 6.59811 128.036 7.56268V8.05958C128.036 9.02415 127.479 9.72565 126.161 9.72565ZM124.55 27.6433V12.444H127.743V27.6433H124.55ZM132.678 27.6433V6.01352H135.871V14.9577H136.017C136.662 13.1455 138.273 12.0932 140.294 12.0932C144.131 12.0932 146.357 15.0454 146.357 20.0436C146.357 25.0418 144.131 27.994 140.294 27.994C138.273 27.994 136.662 26.9125 136.017 25.1295H135.871V27.6433H132.678ZM139.327 25.2464C141.524 25.2464 142.988 23.6973 142.988 21.3589V18.7283C142.988 16.3899 141.524 14.8408 139.327 14.8408C137.394 14.8408 135.871 15.8931 135.871 17.4422V22.645C135.871 24.1942 137.394 25.2464 139.327 25.2464ZM159.61 27.6433V25.1295H159.493C158.937 26.6202 157.736 27.994 155.217 27.994C152.083 27.994 150.238 25.8603 150.238 22.1189V12.444H153.43V21.7097C153.43 24.0188 154.397 25.2464 156.359 25.2464C157.999 25.2464 159.61 24.3988 159.61 22.6158V12.444H162.803V27.6433H159.61ZM173.04 27.6433H170.99C168.822 27.6433 167.738 26.4449 167.738 24.4865V6.01352H170.931V25.0418H173.04V27.6433ZM181.578 27.6433H179.528C177.36 27.6433 176.276 26.4449 176.276 24.4865V6.01352H179.469V25.0418H181.578V27.6433Z" fill="#787878"/>
</svg>
