<svg width="30" height="30" viewBox="0 0 30 30" fill="none" xmlns="http://www.w3.org/2000/svg">
<path opacity="0.4" d="M1.20612 20.2155C1.20612 20.2155 1.41912 22.8225 1.46862 23.6445C1.53462 24.747 1.96062 25.9785 2.67162 26.8335C3.67512 28.0455 4.85712 28.473 6.43512 28.476C8.29062 28.479 21.7831 28.479 23.6386 28.476C25.2166 28.473 26.3986 28.0455 27.4021 26.8335C28.1131 25.9785 28.5391 24.747 28.6066 23.6445C28.6546 22.8225 28.8676 20.2155 28.8676 20.2155" stroke="#200E32" stroke-width="2" stroke-linecap="round" stroke-linejoin="round"/>
<path d="M9.74396 4.99423V4.43773C9.74396 2.60773 11.226 1.12573 13.056 1.12573H16.929C18.7575 1.12573 20.241 2.60773 20.241 4.43773L20.2425 4.99423" stroke="#200E32" stroke-width="2" stroke-linecap="round" stroke-linejoin="round"/>
<path d="M14.9925 22.0173V20.0763" stroke="#200E32" stroke-width="2" stroke-linecap="round" stroke-linejoin="round"/>
<path fill-rule="evenodd" clip-rule="evenodd" d="M1.12482 9.5837V14.7842C4.00182 16.6817 7.44882 18.0107 11.2318 18.5372C11.6848 16.8857 13.1743 15.6752 14.9848 15.6752C16.7668 15.6752 18.2863 16.8857 18.7093 18.5522C22.5073 18.0257 25.9678 16.6967 28.8598 14.7842V9.5837C28.8598 7.0427 26.8153 4.9967 24.2743 4.9967H5.72532C3.18432 4.9967 1.12482 7.0427 1.12482 9.5837Z" stroke="#200E32" stroke-width="2" stroke-linecap="round" stroke-linejoin="round"/>
</svg>
